<svg xmlns="http://www.w3.org/2000/svg" width="64" height="64" preserveAspectRatio="xMidYMid meet" version="1.0" viewBox="0 0 48 48"><metadata>Created by potrace 1.16, written by Peter Selinger 2001-2019</metadata><g fill="#000" stroke="none"><path d="M315 400 l-39 -40 32 0 32 0 0 -58 c0 -32 -5 -63 -12 -70 -7 -7 -40 -12 -80 -12 -61 0 -68 -2 -68 -20 0 -18 7 -20 88 -20 55 0 92 4 100 12 7 7 12 43 12 90 l0 78 32 0 32 0 -39 40 c-21 22 -42 40 -45 40 -3 0 -24 -18 -45 -40z" transform="translate(0.000000,48.000000) scale(0.100000,-0.100000)"/><path d="M112 288 c-7 -7 -12 -43 -12 -90 l0 -78 -32 0 -33 0 43 -42 42 -43 42 43 43 42 -33 0 -32 0 0 58 c0 32 5 63 12 70 7 7 40 12 80 12 61 0 68 2 68 20 0 18 -7 20 -88 20 -55 0 -92 -4 -100 -12z" transform="translate(0.000000,48.000000) scale(0.100000,-0.100000)"/></g></svg>